<svg xmlns="http://www.w3.org/2000/svg" xmlns:xlink="http://www.w3.org/1999/xlink" width="193.958" height="29.316" viewBox="0 0 193.958 29.316">
  <defs>
    <clipPath id="clip-path">
      <rect id="Rettangolo_2767" data-name="Rettangolo 2767" width="193.958" height="29.316" transform="translate(0 0)" fill="#fff"/>
    </clipPath>
  </defs>
  <g id="logo_ya_esteso" transform="translate(0 0)">
    <g id="Raggruppa_2493" data-name="Raggruppa 2493" clip-path="url(#clip-path)">
      <path id="Tracciato_11223" data-name="Tracciato 11223" d="M164.184,19.828a3.973,3.973,0,1,1-3.972-3.973,3.972,3.972,0,0,1,3.972,3.973m6.868,8.057V11.825a.843.843,0,0,0-.843-.844H165.6a.843.843,0,0,0-.843.844v.886a7.239,7.239,0,0,0-5.5-2.318c-5.258,0-8.89,4.359-8.89,9.445s3.7,9.478,8.96,9.478a6.234,6.234,0,0,0,5.362-2.56h.069v1.129a.842.842,0,0,0,.843.843h4.61a.842.842,0,0,0,.843-.843" fill="#fff"/>
      <path id="Tracciato_11224" data-name="Tracciato 11224" d="M187.091,19.828a3.973,3.973,0,1,1-3.973-3.973,3.972,3.972,0,0,1,3.973,3.973m6.867,8.037V.877A.862.862,0,0,0,193.1.015h-4.57a.862.862,0,0,0-.863.862V12.71a7.292,7.292,0,0,0-5.5-2.317c-5.259,0-8.891,4.359-8.891,9.444,0,5.12,3.667,9.478,8.96,9.478a6.275,6.275,0,0,0,5.362-2.559h.069v1.109a.863.863,0,0,0,.863.863h4.57a.863.863,0,0,0,.863-.863" fill="#fff"/>
      <path id="Tracciato_11225" data-name="Tracciato 11225" d="M46.137,10.981a.8.8,0,0,1,.794.8v8.674c0,2.249.547,3.841,3.112,3.841s3.112-1.592,3.112-3.841V11.785a.8.8,0,0,1,.794-.8h4.635a.8.8,0,0,1,.794.8V21.67c0,5.846-4.069,7.645-9.335,7.645s-9.335-1.8-9.335-7.645V11.785a.8.8,0,0,1,.794-.8Z" fill="#fff"/>
      <path id="Tracciato_11226" data-name="Tracciato 11226" d="M120.345,13.887h.069a6.165,6.165,0,0,1,5.743-3.148h.577a.632.632,0,0,1,.633.633v4.769a.414.414,0,0,1-.568.384,5.655,5.655,0,0,0-2.1-.32c-3.494,0-4.359,2.318-4.359,5.361V27.9a.831.831,0,0,1-.83.83h-4.636a.83.83,0,0,1-.83-.83V11.811a.83.83,0,0,1,.83-.83h4.636a.831.831,0,0,1,.83.83Z" fill="#fff"/>
      <path id="Tracciato_11227" data-name="Tracciato 11227" d="M142.723,19.828a3.973,3.973,0,1,1-3.973-3.973,3.972,3.972,0,0,1,3.973,3.973m5.489.026a9.462,9.462,0,1,0-9.462,9.462,9.462,9.462,0,0,0,9.462-9.462" fill="#fff"/>
      <path id="Tracciato_11228" data-name="Tracciato 11228" d="M105.6,19.828a3.973,3.973,0,1,1-3.973-3.973,3.972,3.972,0,0,1,3.973,3.973m5.874.009c0-5.085-3.632-9.444-8.891-9.444a7.292,7.292,0,0,0-5.5,2.317V.877a.862.862,0,0,0-.863-.862H91.65a.862.862,0,0,0-.862.862V27.865a.863.863,0,0,0,.862.863h4.571a.863.863,0,0,0,.863-.863V26.756h.069a6.273,6.273,0,0,0,5.362,2.559c5.293,0,8.96-4.358,8.96-9.478" fill="#fff"/>
      <path id="Tracciato_11229" data-name="Tracciato 11229" d="M32.987,19.828a3.972,3.972,0,1,1-3.973-3.973,3.972,3.972,0,0,1,3.973,3.973m5.489.026a9.462,9.462,0,1,0-9.462,9.462,9.462,9.462,0,0,0,9.462-9.462" fill="#fff"/>
      <path id="Tracciato_11230" data-name="Tracciato 11230" d="M71.823,18.858l3.259-8.734,3.1,8.734Zm16.532,7.773L77.831,2A2.7,2.7,0,0,0,75.318.037h-.432A2.746,2.746,0,0,0,72.334,2L61.81,26.631c-.55,1.31.079,2.052,1.3,2.052h3.966c1.217,0,1.413-.7,1.885-2.052L70.012,23.8h9.882l1.04,2.831c.471,1.354.707,2.052,1.923,2.052h4.2c1.218,0,1.846-.742,1.3-2.052" fill="#fff"/>
      <path id="Tracciato_11231" data-name="Tracciato 11231" d="M25.781.835A.654.654,0,0,0,25.47.216,2.261,2.261,0,0,0,24.416.038h-.427c-1.323,0-2.681-.077-4.008-.011a1.405,1.405,0,0,0-1.27.382,27.664,27.664,0,0,0-1.53,2.464l-.276.453-.183.3q-1.283,2.046-2.564,4.091L12.89,9.735q-.633-1.012-1.267-2.023L9.059,3.621l-.183-.3L8.6,2.873A27.664,27.664,0,0,0,7.07.409,1.405,1.405,0,0,0,5.8.027C4.472-.039,3.114.038,1.792.038H1.365A2.258,2.258,0,0,0,.311.216.652.652,0,0,0,0,.835a.668.668,0,0,0,.029.183,1.385,1.385,0,0,0,.052.141c.013.034.022.063.039.1l.005.01a4.816,4.816,0,0,0,.337.6l8.962,13.3c0,.376-.024,11.829-.032,12.091a2.7,2.7,0,0,0,.07.815.818.818,0,0,0,.206.384,1.1,1.1,0,0,0,.724.237,3.736,3.736,0,0,0,.531.026v0h3.935v0a3.606,3.606,0,0,0,.579-.032,1.057,1.057,0,0,0,.676-.231.827.827,0,0,0,.206-.384,2.727,2.727,0,0,0,.07-.815c-.009-.262-.032-11.715-.032-12.091l8.962-13.3a4.816,4.816,0,0,0,.337-.6l0-.01c.017-.036.025-.065.038-.1a1.405,1.405,0,0,0,.053-.141.709.709,0,0,0,.029-.183" fill="#fff"/>
    </g>
  </g>
</svg>
